#N struct text float x float y text t;
#N canvas 237 231 670 607 10;
#X declare -path ./bop;
#X declare -path ./samples;
#X obj 10 50 declare -path ./bop;
#X obj 100 280 sketch01, f 16;
#X obj 100 200 tgl 15 0 empty empty empty 17 7 0 10 #fcfcfc #000000
#000000 0 1;
#X obj 10 30 declare -path ./samples;
#X obj 100 340 dac~, f 8;
#X msg 100 230 play \$1;
#X text 210 280 👈 double click to open bop sketch;
#X text 210 305 create other sketches as abstractions to be able to
play them together and independently, f 33;
#X text 10 10 declare search paths for this project, f 44;
#X text 210 200 👈 click to start;
#X connect 1 0 4 0;
#X connect 1 1 4 1;
#X connect 2 0 5 0;
#X connect 5 0 1 0;
