#N struct text float x float y text t;
#N canvas 429 188 1111 607 10;
#X obj 200 280 sketch01, f 16;
#X obj 200 160 tgl 15 0 empty empty empty 17 7 0 10 #fcfcfc #000000
#000000 1 1;
#X text 220 160 👈 click to start;
#X obj 460 440 dac~, f 11;
#X text 310 280 👈 click to open bop sketch;
#X obj 630 280 sketch01, f 16;
#X obj 630 160 tgl 15 0 empty empty empty 17 7 0 10 #fcfcfc #000000
#000000 1 1;
#X text 650 160 👈 click to start;
#X msg 490 230 rewind 1;
#X text 510 200 sync!;
#X obj 490 200 bng 15 250 50 0 empty empty empty 17 7 0 10 #fcfcfc
#000000 #000000;
#X text 100 220 Send messages to all connected bop modules!, f 13
;
#X obj 460 360 +~;
#X obj 520 358 +~;
#X msg 200 230 play \$1 \, bpm 90 \, pan -0.5 \, audio 0 \, amp 0.6
;
#X msg 630 230 play \$1 \, bpm 120 \, pan 0.5 \, audio 0 \, amp 0.6
;
#X text 390 20 This demonstrates playing two instances of the same
bop sketch at different bpms and summing them together., f 33;
#X connect 0 0 12 0;
#X connect 0 1 13 0;
#X connect 1 0 14 0;
#X connect 5 0 12 1;
#X connect 5 1 13 1;
#X connect 6 0 15 0;
#X connect 8 0 0 0;
#X connect 8 0 5 0;
#X connect 10 0 8 0;
#X connect 12 0 3 0;
#X connect 13 0 3 1;
#X connect 14 0 0 0;
#X connect 15 0 5 0;
