#N struct text float x float y text t;
#N canvas 1273 0 638 975 10;
#X obj 200 1420 outlet~;
#X obj 270 1420 outlet~;
#X obj 200 182 tgl 15 0 empty empty empty 17 7 0 10 #fcfcfc #000000
#000000 0 1;
#X obj 200 210 switch~;
#X msg 400 250 play \$1;
#X obj 200 300 bop;
#A saved 110;
#X obj 200 1310 bop.mix;
#A saved 0 1.13876 0;
#X obj 200 910 bop.sampler;
#A saved banjo.wav 0 0.269663 0.195652 0 0 4.2951 1;
#X msg 460 250 amp 1;
#X obj 200 420 bop.rhythm;
#A saved 4.625 4.21429 1 0 1\ 0\ 1\ 1\ 0\ 0\ 0\ 0\ 0\ 0\ 0\ 0\ 0\ 0\ 0\ 0\ 0\ 0\ 0\ 0\ 0\ 0\ 0\ 0
;
#X obj 200 638 bop.notelist;
#A saved g4\ f#4\ d4 0;
#X obj 600 300 bop.palette;
#X obj 400 220 r \$0-inlet;
#X obj 200 120 r \$0-inlet;
#X obj 200 80 s \$0-inlet;
#X obj 200 150 route play;
#X obj 200 50 inlet;
#X obj 200 736 bop.notefx;
#A saved 0.56 -1.49143 0 0 100 127 1 0 0;
#X obj 200 1130 bop.reverb;
#A saved 0.866848 0.15625 1.07609 0.0251917 0.722263 0 0;
#X connect 2 0 3 0;
#X connect 4 0 5 3;
#X connect 5 0 9 0;
#X connect 5 1 9 1;
#X connect 5 2 9 2;
#X connect 5 3 9 3;
#X connect 6 0 0 0;
#X connect 6 1 1 0;
#X connect 7 0 18 0;
#X connect 7 1 18 1;
#X connect 7 2 18 2;
#X connect 7 3 18 3;
#X connect 8 0 5 3;
#X connect 9 0 10 0;
#X connect 9 1 10 1;
#X connect 9 2 10 2;
#X connect 9 3 10 3;
#X connect 10 0 17 0;
#X connect 10 1 17 1;
#X connect 10 2 17 2;
#X connect 10 3 17 3;
#X connect 12 0 4 0;
#X connect 13 0 15 0;
#X connect 15 0 2 0;
#X connect 16 0 14 0;
#X connect 17 0 7 0;
#X connect 17 1 7 1;
#X connect 17 2 7 2;
#X connect 17 3 7 3;
#X connect 18 0 6 0;
#X connect 18 1 6 1;
#X connect 18 2 6 2;
#X connect 18 3 6 3;
